<svg width="10" height="16" viewBox="0 0 10 16" fill="none" xmlns="http://www.w3.org/2000/svg">
    <path d="M4.30035 2.61066L1.11204 6.66062C0.979913 6.82817 0.962024 7.12786 1.07237 7.32904C1.13158 7.43719 1.21539 7.49333 1.30084 7.49807L1.29929 7.5L7.70081 7.5L7.69896 7.49763C7.78452 7.49304 7.86842 7.43689 7.92773 7.32889C8.03788 7.12786 8.02018 6.82802 7.88786 6.66047L4.69965 2.61052C4.6419 2.53674 4.57092 2.5 4.50005 2.5C4.42888 2.50015 4.3582 2.53689 4.30035 2.61066Z" fill="#5C5C5C" />
    <path d="M4.30035 13.3893L1.11204 9.33938C0.979913 9.17183 0.962024 8.87214 1.07237 8.67096C1.13158 8.56281 1.21539 8.50667 1.30084 8.50193L1.29929 8.5L7.70081 8.5L7.69896 8.50237C7.78452 8.50696 7.86842 8.56311 7.92773 8.67111C8.03788 8.87214 8.02018 9.17198 7.88786 9.33953L4.69965 13.3895C4.6419 13.4633 4.57092 13.5 4.50005 13.5C4.42888 13.4999 4.3582 13.4631 4.30035 13.3893Z" fill="#5C5C5C" />
</svg>